<?xml version="1.0" encoding="utf-8"?>
<svg id="master-artboard" viewBox="0 0 131 78" version="1.1" xmlns="http://www.w3.org/2000/svg" x="0px" y="0px" style="enable-background:new 0 0 1400 980;" width="131px" height="78px"><rect id="ee-background" x="0" y="0" width="131" height="78" style="fill: rgb(255, 255, 255); fill-opacity: 0; pointer-events: none;"/><defs><radialGradient id="gradient-0" gradientUnits="objectBoundingBox" cx="0.5" cy="0.5" r="0.5">
                <stop offset="0" style="stop-color: #ffffff"/>
                <stop offset="1" style="stop-color: #cccccc"/>
              </radialGradient><style id="ee-google-fonts">@import url(https://fonts.googleapis.com/css?family=Condiment:400);</style></defs><path d="M 56.04591369628906 107.8698959350586 C 55.952579498291016 107.8698959350586 55.892581939697266 107.80656433105469 55.86591339111328 107.67989349365234 C 55.86591339111328 107.44656372070312 56.02924728393555 107.17989349365234 56.35591506958008 106.87989807128906 C 56.689247131347656 106.57322692871094 56.95591354370117 106.37989807128906 57.155914306640625 106.29989624023438 C 57.35591506958008 106.21322631835938 58.019248962402344 106.15656280517578 59.14591598510742 106.12989807128906 L 59.4359130859375 105.79989624023438 C 63.629249572753906 100.95989227294922 66.53924560546875 98.5398941040039 68.1659164428711 98.5398941040039 C 68.30591583251953 98.52656555175781 68.46591186523438 98.5198974609375 68.64591217041016 98.5198974609375 C 69.59258270263672 98.5198974609375 70.06591796875 98.74989318847656 70.06591796875 99.20989227294922 C 70.06591796875 99.2898941040039 69.97591400146484 99.50989532470703 69.79591369628906 99.8698959350586 L 68.86591339111328 101.72989654541016 C 68.42591857910156 102.60989379882812 67.9992446899414 103.50656127929688 67.5859146118164 104.41989135742188 C 65.35258483886719 109.33989715576172 64.05591583251953 112.56322479248047 63.69591522216797 114.08989715576172 C 63.69591522216797 114.20323181152344 63.55591583251953 114.25989532470703 63.27591323852539 114.25989532470703 C 62.995914459228516 114.25989532470703 62.655914306640625 114.10322570800781 62.25591278076172 113.7898941040039 C 61.85591506958008 113.48323059082031 61.655914306640625 113.21322631835938 61.655914306640625 112.97989654541016 C 61.655914306640625 112.55323028564453 61.99258041381836 111.7465591430664 62.665916442871094 110.55989837646484 C 63.33924865722656 109.37322998046875 63.6759147644043 108.59989166259766 63.6759147644043 108.23989868164062 C 63.6759147644043 107.75989532470703 62.73925018310547 107.5198974609375 60.86591339111328 107.5198974609375 C 60.59258270263672 107.5198974609375 60.165916442871094 107.5332260131836 59.585914611816406 107.55989837646484 L 58.79591369628906 108.58989715576172 C 57.835914611816406 109.889892578125 56.91258239746094 111.4965591430664 56.02591323852539 113.40989685058594 C 55.872581481933594 113.75656127929688 55.41258239746094 113.92989349365234 54.64591598510742 113.92989349365234 C 53.872581481933594 113.92989349365234 53.48591613769531 113.81989288330078 53.48591613769531 113.59989166259766 C 53.48591613769531 113.44656372070312 53.915916442871094 112.77989196777344 54.77591323852539 111.59989166259766 C 55.63591384887695 110.41989135742188 56.65924835205078 109.11322784423828 57.845916748046875 107.67989349365234 C 57.63924789428711 107.70655822753906 57.379249572753906 107.73656463623047 57.065914154052734 107.7698974609375 C 56.745914459228516 107.79656219482422 56.49924850463867 107.81989288330078 56.3259162902832 107.83989715576172 C 56.15258026123047 107.85989379882812 56.05924987792969 107.8698959350586 56.04591369628906 107.8698959350586 M 64.62591552734375 105.19989776611328 C 64.62591552734375 105.19989776611328 64.76258087158203 105.0398941040039 65.0359115600586 104.71989440917969 C 65.30258178710938 104.39322662353516 65.56924438476562 103.89989471435547 65.8359146118164 103.23989868164062 C 66.10924530029297 102.57989501953125 66.24591064453125 102.12989807128906 66.24591064453125 101.889892578125 C 66.24591064453125 101.65656280517578 66.12591552734375 101.5398941040039 65.88591766357422 101.5398941040039 C 65.47257995605469 101.5398941040039 64.7925796508789 101.97989654541016 63.845916748046875 102.85989379882812 C 62.892581939697266 103.73323059082031 61.859249114990234 104.82322692871094 60.745914459228516 106.12989807128906 L 62.995914459228516 106.16989135742188 C 63.54924774169922 106.16989135742188 64.09258270263672 105.84656524658203 64.62591552734375 105.19989776611328 ZM 76.61819458007812 114.10989379882812 C 76.3848648071289 114.10989379882812 76.20819091796875 113.96989440917969 76.08819580078125 113.68989562988281 C 75.96153259277344 113.40989685058594 75.898193359375 113.17322540283203 75.898193359375 112.97989654541016 C 75.898193359375 112.2465591430664 76.45486450195312 110.98323059082031 77.56819152832031 109.18989562988281 C 77.9415283203125 108.5832290649414 78.1281967163086 108.17655944824219 78.1281967163086 107.96989440917969 C 78.1281967163086 107.76322937011719 78.03152465820312 107.65989685058594 77.83819580078125 107.65989685058594 C 77.33152770996094 107.65989685058594 76.66486358642578 108.04989624023438 75.83819580078125 108.82989501953125 C 75.01152801513672 109.60989379882812 74.30819702148438 110.39322662353516 73.72819519042969 111.17989349365234 L 72.85819244384766 112.33989715576172 C 72.62486267089844 112.66656494140625 72.26152801513672 112.82989501953125 71.76819610595703 112.82989501953125 C 71.28152465820312 112.82989501953125 71.03819274902344 112.73989868164062 71.03819274902344 112.55989837646484 C 71.03819274902344 112.28656005859375 71.37152862548828 111.60322570800781 72.03819274902344 110.50989532470703 C 72.7115249633789 109.40989685058594 73.0481948852539 108.67322540283203 73.0481948852539 108.29989624023438 C 73.0481948852539 108.19322967529297 73.01486206054688 108.10989379882812 72.94819641113281 108.04989624023438 C 72.88819885253906 107.98323059082031 72.82485961914062 107.94989776611328 72.75819396972656 107.94989776611328 C 72.31153106689453 107.94989776611328 71.82152557373047 108.1265640258789 71.28819274902344 108.47989654541016 C 70.7481918334961 108.8332290649414 70.24486541748047 109.26322937011719 69.7781982421875 109.7698974609375 C 68.85153198242188 110.77656555175781 68.10819244384766 111.71322631835938 67.5481948852539 112.57989501953125 L 67.21819305419922 113.09989166259766 C 66.92486572265625 113.51322937011719 66.398193359375 113.71989440917969 65.63819885253906 113.71989440917969 C 65.2981948852539 113.71989440917969 65.1281967163086 113.62989807128906 65.1281967163086 113.44989776611328 C 65.1281967163086 113.0765609741211 65.83819580078125 111.62989807128906 67.25819396972656 109.10989379882812 C 68.67819213867188 106.58989715576172 69.60153198242188 105.2465591430664 70.0281982421875 105.07989501953125 C 70.26152801513672 104.93989562988281 70.58152770996094 104.8698959350586 70.98819732666016 104.8698959350586 C 71.39485931396484 104.8698959350586 71.59819793701172 104.93656158447266 71.59819793701172 105.06989288330078 C 71.59819793701172 105.19656372070312 71.36152648925781 105.61656188964844 70.88819885253906 106.32989501953125 C 70.40819549560547 107.03656005859375 70.16819763183594 107.50989532470703 70.16819763183594 107.74989318847656 C 70.20819854736328 107.84323120117188 70.2781982421875 107.889892578125 70.3781967163086 107.889892578125 C 70.47152709960938 107.889892578125 70.57485961914062 107.84323120117188 70.68819427490234 107.74989318847656 C 70.79486083984375 107.64989471435547 70.97486114501953 107.49322509765625 71.22819519042969 107.27989196777344 C 71.47486114501953 107.06655883789062 71.93152618408203 106.7832260131836 72.59819793701172 106.42989349365234 C 73.26486206054688 106.0765609741211 73.87152862548828 105.89989471435547 74.41819763183594 105.89989471435547 C 74.96485900878906 105.89989471435547 75.23819732666016 106.13655853271484 75.23819732666016 106.60989379882812 C 75.23819732666016 106.93656158447266 75.16819763183594 107.23989868164062 75.0281982421875 107.5198974609375 C 74.88819885253906 107.79322814941406 74.81819152832031 107.95655822753906 74.81819152832031 108.00989532470703 C 74.81819152832031 108.12322998046875 74.8781967163086 108.17989349365234 74.99819946289062 108.17989349365234 C 75.11819458007812 108.17989349365234 75.22486114501953 108.11656188964844 75.31819152832031 107.98989868164062 C 75.52486419677734 107.7832260131836 75.7981948852539 107.52989196777344 76.13819885253906 107.22989654541016 C 76.47152709960938 106.92322540283203 77.03485870361328 106.5198974609375 77.82819366455078 106.0198974609375 C 78.62152862548828 105.51322937011719 79.26819610595703 105.25989532470703 79.76819610595703 105.25989532470703 C 80.4415283203125 105.25989532470703 80.7781982421875 105.55656433105469 80.7781982421875 106.14989471435547 C 80.7781982421875 106.64989471435547 80.60153198242188 107.2265625 80.24819946289062 107.87989807128906 C 79.89485931396484 108.5332260131836 79.65819549560547 108.97322845458984 79.53819274902344 109.19989776611328 C 79.41152954101562 109.42655944824219 79.15152740478516 109.85989379882812 78.75819396972656 110.49989318847656 C 78.36486053466797 111.13322448730469 78.10153198242188 111.56322479248047 77.96819305419922 111.7898941040039 C 77.82819366455078 112.01656341552734 77.63819885253906 112.35989379882812 77.398193359375 112.81989288330078 C 77.15819549560547 113.27989196777344 76.98152923583984 113.60989379882812 76.86819458007812 113.80989837646484 C 76.76152801513672 114.00989532470703 76.67819213867188 114.10989379882812 76.61819458007812 114.10989379882812 ZM 80.34343719482422 114.12989807128906 C 80.15010833740234 114.12989807128906 79.93677520751953 114.00989532470703 79.70343780517578 113.7698974609375 C 79.47010803222656 113.52989196777344 79.35343933105469 113.23656463623047 79.35343933105469 112.889892578125 C 79.35343933105469 112.69656372070312 79.80343627929688 111.72322845458984 80.70343780517578 109.96989440917969 C 81.60343933105469 108.20989227294922 82.07010650634766 107.0198974609375 82.10343933105469 106.39989471435547 C 82.10343933105469 106.20655822753906 82.22677612304688 106.02656555175781 82.47344207763672 105.85989379882812 C 82.91343688964844 105.59989166259766 83.5667724609375 105.46989440917969 84.43344116210938 105.46989440917969 C 84.60010528564453 105.46989440917969 84.77677154541016 105.49989318847656 84.96343994140625 105.55989837646484 C 85.15010833740234 105.6265640258789 85.24343872070312 105.71322631835938 85.24343872070312 105.81989288330078 C 85.24343872070312 105.87322998046875 85.22344207763672 105.92322540283203 85.18344116210938 105.96989440917969 C 84.65676879882812 106.62989807128906 83.89010620117188 107.81989288330078 82.88343811035156 109.5398941040039 C 81.87677001953125 111.26656341552734 81.12010955810547 112.66656494140625 80.61344146728516 113.73989868164062 C 80.54010772705078 113.99989318847656 80.45010375976562 114.12989807128906 80.34343719482422 114.12989807128906 M 84.8734359741211 104.30989074707031 C 84.26676940917969 104.30989074707031 83.95010375976562 104.06989288330078 83.9234390258789 103.58989715576172 L 83.9234390258789 103.56989288330078 C 83.9234390258789 103.15656280517578 84.12677001953125 102.81989288330078 84.53343963623047 102.55989074707031 C 84.94010925292969 102.29322814941406 85.34343719482422 102.15989685058594 85.74343872070312 102.15989685058594 C 86.35010528564453 102.15989685058594 86.6667709350586 102.40322875976562 86.69343566894531 102.889892578125 C 86.69343566894531 103.30323028564453 86.49343872070312 103.64322662353516 86.09343719482422 103.90989685058594 C 85.69343566894531 104.17655944824219 85.28677368164062 104.30989074707031 84.8734359741211 104.30989074707031 ZM 83.36383056640625 113.8698959350586 C 83.36383056640625 113.8698959350586 83.36383056640625 113.72989654541016 83.36383056640625 113.44989776611328 C 83.36383056640625 113.17655944824219 83.59049987792969 112.45655822753906 84.04383087158203 111.2898941040039 C 84.4971694946289 110.12322998046875 85.00716400146484 108.98989868164062 85.57383728027344 107.889892578125 C 86.1405029296875 106.7898941040039 86.9038314819336 105.4332275390625 87.86383056640625 103.81989288330078 C 89.3038330078125 101.4332275390625 90.78050231933594 99.06655883789062 92.29383087158203 96.71989440917969 C 92.52716827392578 96.35322570800781 92.89383697509766 96.04989624023438 93.39383697509766 95.80989074707031 C 93.88716888427734 95.5765609741211 94.33383178710938 95.45989227294922 94.73383331298828 95.45989227294922 C 95.13383483886719 95.45989227294922 95.34049987792969 95.56989288330078 95.35383605957031 95.7898941040039 C 95.35383605957031 95.86322784423828 95.31383514404297 95.93989562988281 95.23383331298828 96.0198974609375 C 94.760498046875 96.44656372070312 93.97383117675781 97.43656158447266 92.87383270263672 98.98989868164062 C 91.76716613769531 100.53656005859375 90.59716796875 102.30989074707031 89.36383056640625 104.30989074707031 C 88.13050079345703 106.30989837646484 87.05049896240234 108.41989135742188 86.12383270263672 110.639892578125 C 85.19049835205078 112.85989379882812 84.72383117675781 114.67322540283203 84.72383117675781 116.07989501953125 C 84.72383117675781 116.28656005859375 84.66383361816406 116.389892578125 84.54383087158203 116.389892578125 C 84.3038330078125 116.389892578125 84.10383605957031 116.30323028564453 83.94383239746094 116.12989807128906 C 83.77716827392578 115.95655822753906 83.65716552734375 115.73989868164062 83.58383178710938 115.47989654541016 C 83.43716430664062 114.95323181152344 83.36383056640625 114.41656494140625 83.36383056640625 113.8698959350586 ZM 89.73287963867188 114.25989532470703 C 88.93287658691406 114.25989532470703 88.34620666503906 114.02323150634766 87.9728775024414 113.54989624023438 C 87.59954071044922 113.06989288330078 87.41287994384766 112.48323059082031 87.41287994384766 111.7898941040039 C 87.41287994384766 111.08989715576172 87.56620788574219 110.35989379882812 87.87287902832031 109.59989166259766 C 88.1728744506836 108.8332290649414 88.58954620361328 108.08989715576172 89.12287902832031 107.3698959350586 C 89.64954376220703 106.65656280517578 90.34288024902344 106.05323028564453 91.202880859375 105.55989837646484 C 92.06954193115234 105.07322692871094 92.99954223632812 104.82989501953125 93.99287414550781 104.82989501953125 C 94.44621276855469 104.82989501953125 94.78954315185547 104.96989440917969 95.02287292480469 105.24989318847656 C 95.25621032714844 105.53656005859375 95.37287902832031 105.87322998046875 95.37287902832031 106.25989532470703 C 95.37287902832031 107.05989837646484 95.08954620361328 107.80323028564453 94.52288055419922 108.48989868164062 C 93.96287536621094 109.17655944824219 93.33621215820312 109.69989776611328 92.64287567138672 110.05989837646484 C 91.95620727539062 110.41989135742188 91.34620666503906 110.62322998046875 90.81287384033203 110.66989135742188 C 90.28620910644531 110.71656036376953 89.93287658691406 110.81655883789062 89.75287628173828 110.96989440917969 C 89.5728759765625 111.12322998046875 89.48287963867188 111.42655944824219 89.48287963867188 111.87989807128906 C 89.48287963867188 112.3332290649414 89.58621215820312 112.67655944824219 89.79287719726562 112.90989685058594 C 89.99954223632812 113.14989471435547 90.20620727539062 113.30989837646484 90.41287994384766 113.389892578125 C 90.61954498291016 113.46989440917969 90.7228775024414 113.55323028564453 90.7228775024414 113.639892578125 C 90.7228775024414 113.8332290649414 90.61954498291016 113.98323059082031 90.41287994384766 114.08989715576172 C 90.20620727539062 114.20323181152344 89.97954559326172 114.25989532470703 89.73287963867188 114.25989532470703 M 93.37287902832031 106.7698974609375 C 93.37287902832031 106.34323120117188 93.1795425415039 106.12989807128906 92.79287719726562 106.12989807128906 C 92.23954772949219 106.12989807128906 91.62954711914062 106.51656341552734 90.96287536621094 107.2898941040039 C 90.28954315185547 108.06322479248047 89.952880859375 108.75989532470703 89.952880859375 109.37989807128906 C 89.952880859375 109.5332260131836 90.0728759765625 109.60989379882812 90.31287384033203 109.60989379882812 C 90.87287902832031 109.60989379882812 91.52288055419922 109.31989288330078 92.26287841796875 108.73989868164062 C 93.00287628173828 108.15989685058594 93.37287902832031 107.50322723388672 93.37287902832031 106.7698974609375 ZM 101.57665252685547 108.46989440917969 L 101.5966567993164 108.00989532470703 C 101.5966567993164 107.73656463623047 101.48665618896484 107.59989166259766 101.26665496826172 107.59989166259766 C 101.08665466308594 107.59989166259766 100.8599853515625 107.70989227294922 100.58665466308594 107.92989349365234 C 99.79998779296875 108.62322998046875 98.97332000732422 109.42655944824219 98.10665893554688 110.33989715576172 C 97.23332214355469 111.25989532470703 96.65665435791016 111.90989685058594 96.37665557861328 112.2898941040039 C 96.0966567993164 112.67655944824219 95.90998840332031 112.91656494140625 95.81665802001953 113.00989532470703 C 95.72998809814453 113.09656524658203 95.48665618896484 113.21656036376953 95.08665466308594 113.3698959350586 C 94.68665313720703 113.52323150634766 94.21998596191406 113.59989166259766 93.68665313720703 113.59989166259766 C 93.15998840332031 113.59989166259766 92.89665222167969 113.51656341552734 92.89665222167969 113.34989166259766 C 92.89665222167969 113.00322723388672 95.60332489013672 110.54322814941406 101.01665496826172 105.96989440917969 C 101.5033187866211 105.5832290649414 101.7599868774414 105.07989501953125 101.78665161132812 104.45989227294922 C 101.8399887084961 103.43989562988281 101.86665344238281 102.67989349365234 101.86665344238281 102.17989349365234 C 101.86665344238281 100.78656005859375 101.74998474121094 99.73989868164062 101.51665496826172 99.0398941040039 L 101.40665435791016 98.72989654541016 C 101.40665435791016 98.4965591430664 101.91665649414062 98.37989807128906 102.93665313720703 98.37989807128906 C 103.43665313720703 98.37989807128906 103.78998565673828 98.45989227294922 103.99665832519531 98.6198959350586 C 104.20332336425781 98.77323150634766 104.30665588378906 99.063232421875 104.30665588378906 99.48989868164062 C 104.30665588378906 99.92322540283203 104.25665283203125 100.8265609741211 104.15665435791016 102.19989776611328 C 104.15665435791016 102.57322692871094 104.28998565673828 102.75989532470703 104.55665588378906 102.75989532470703 C 104.68998718261719 102.75989532470703 104.8466567993164 102.6832275390625 105.02665710449219 102.52989196777344 C 106.8466567993164 100.92322540283203 107.91999053955078 99.90989685058594 108.24665832519531 99.48989868164062 C 108.56665802001953 99.0765609741211 108.82998657226562 98.82322692871094 109.03665161132812 98.72989654541016 C 109.44998931884766 98.563232421875 110.02999114990234 98.46656036376953 110.77665710449219 98.43989562988281 L 111.12665557861328 98.43989562988281 C 111.80665588378906 98.43989562988281 112.14665222167969 98.54989624023438 112.14665222167969 98.7698974609375 C 112.14665222167969 98.89656066894531 112.04998779296875 99.01322937011719 111.85665893554688 99.1198959350586 C 110.10331726074219 100.11322784423828 107.79331970214844 101.7832260131836 104.92665100097656 104.12989807128906 C 104.8599853515625 104.16989135742188 104.77332305908203 104.2265625 104.66665649414062 104.29989624023438 C 104.56665802001953 104.37989807128906 104.42665100097656 104.563232421875 104.24665832519531 104.84989929199219 C 104.06665802001953 105.13655853271484 103.96331787109375 105.45323181152344 103.93665313720703 105.79989624023438 C 103.83665466308594 107.5398941040039 103.78665161132812 108.97322845458984 103.78665161132812 110.09989166259766 C 103.78665161132812 111.39989471435547 103.8833236694336 112.24322509765625 104.07665252685547 112.62989807128906 C 104.12998962402344 112.73656463623047 104.15665435791016 112.82322692871094 104.15665435791016 112.889892578125 C 104.15665435791016 113.09656524658203 103.9466552734375 113.2465591430664 103.52665710449219 113.33989715576172 C 103.10665893554688 113.42655944824219 102.70332336425781 113.46989440917969 102.31665802001953 113.46989440917969 C 101.93665313720703 113.46989440917969 101.68998718261719 113.38655853271484 101.57665252685547 113.21989440917969 C 101.46332550048828 113.05989837646484 101.40665435791016 112.72322845458984 101.40665435791016 112.20989227294922 C 101.40665435791016 111.70323181152344 101.46332550048828 110.45655822753906 101.57665252685547 108.46989440917969 Z" transform="matrix(1.6264793872833252, 0, 0, 3.095165967941284, -71.28385925292969, -287.814208984375)" style="fill: rgb(0, 0, 0); white-space: pre; color: rgb(0, 0, 0); stroke: rgb(0, 0, 0); stroke-width: 0; paint-order: fill; fill-opacity: 1; stroke-opacity: 0; -webkit-text-stroke: 0px rgb(0, 0, 0);"/></svg>